<svg xmlns="http://www.w3.org/2000/svg" viewBox="0 0 600.01 200"><defs><style>.cls-1,.cls-2{fill:#fff;}.cls-1{fill-rule:evenodd;}</style></defs><g id="Layer_2" data-name="Layer 2"><g id="Layer_1-2" data-name="Layer 1"><path id="Turing" class="cls-1" d="M214.16,66.49h32.49V44.81H159.32V66.49h32.49v86.65h22.35V66.49ZM248,79.32v46.33a34.67,34.67,0,0,0,1.69,10.94,29.45,29.45,0,0,0,4.93,9.22,22.35,22.35,0,0,0,8.51,6.45,29,29,0,0,0,11.95,2.36q13.31,0,20.6-10.67h.2v9.19h21.28V79.32H295.61v41.13a15.25,15.25,0,0,1-3.37,10.16q-3.37,4-9.86,4c-4.33,0-7.54-1.28-9.66-3.85s-3.17-6-3.18-10.33V79.32Zm128.93-.81a22.77,22.77,0,0,0-11.18,2.77,19,19,0,0,0-7.93,8.78h-.21V79.32H337.15v73.82h21.14V120.79q0-10.07,4.79-15.5t12.77-5.44a37.52,37.52,0,0,1,6.89.54V79.25a23.26,23.26,0,0,0-5.81-.74Zm29.38-11.62A13.11,13.11,0,0,0,415.93,63a13.36,13.36,0,0,0,0-19,13.15,13.15,0,0,0-9.62-3.92A12.69,12.69,0,0,0,397,44,13.4,13.4,0,0,0,397,63a12.7,12.7,0,0,0,9.32,3.92Zm11,12.43v73.82H395.7V79.32Zm89.15,73.82V107.21a37.3,37.3,0,0,0-1.59-11,29.92,29.92,0,0,0-4.73-9.32,21.79,21.79,0,0,0-8.37-6.59,28.35,28.35,0,0,0-12.06-2.43,24,24,0,0,0-3.75.37,45,45,0,0,0-5.5,1.39A20.54,20.54,0,0,0,464,83a19.55,19.55,0,0,0-5.13,5.88h-.2V79.32H437.31v73.82h21.47v-41a15.45,15.45,0,0,1,3.42-10.2q3.41-4.11,9.89-4.12t9.62,3.92q3.21,3.92,3.21,10.4v41Zm72.26-73.82v8.91h-.27a26.77,26.77,0,0,0-5.91-5.33,24.38,24.38,0,0,0-6.45-3.11,39.14,39.14,0,0,0-5.47-1.28,30.13,30.13,0,0,0-4.46-.34A33.1,33.1,0,0,0,530.68,90a41.16,41.16,0,0,0-6.92,12.06,39,39,0,0,0-2.5,13.81,40.19,40.19,0,0,0,4.42,18.84,33.86,33.86,0,0,0,12.63,13.51,35.06,35.06,0,0,0,18.61,5q13.71,0,21.27-9.86h.27v8.45a22.37,22.37,0,0,1-1.62,8.81,15.6,15.6,0,0,1-4.42,6.11,19.67,19.67,0,0,1-6.32,3.45,24.12,24.12,0,0,1-7.49,1.14q-7.17,0-11.59-4a16.8,16.8,0,0,1-5.5-9.62l-19.92,5.74a26.83,26.83,0,0,0,4,9.89,35.15,35.15,0,0,0,19.21,14.49,46.72,46.72,0,0,0,14.69,2.23,48.47,48.47,0,0,0,16.21-2.6,36.9,36.9,0,0,0,12.8-7.56,33.31,33.31,0,0,0,8.48-12.8,49.22,49.22,0,0,0,3-17.77v-70Zm-4.86,49.84a18.4,18.4,0,0,1-25.6,0,18.15,18.15,0,0,1-5.13-13.34,18,18,0,0,1,5.2-13.27,18.25,18.25,0,0,1,25.56,0,18,18,0,0,1,5.17,13.24A18.12,18.12,0,0,1,573.87,129.16Z"/><path class="cls-2" d="M57.43,42.39H0V0H127.46L99.06,26.15A61.48,61.48,0,0,1,57.43,42.39Z"/><path class="cls-2" d="M10.18,109l32-49.14A20.37,20.37,0,0,1,59.25,50.5H95.51L.58,200,.11,144.84C-.33,134.33.11,121.18,10.18,109Z"/></g></g></svg>